<?xml version="1.0" encoding="UTF-8"?><svg id="a" xmlns="http://www.w3.org/2000/svg" viewBox="0 0 56.78 70"><defs><style>.b{fill:#e8e5e2;}.c{fill:#74584b;}.d{fill:#8f6d5d;}.e{fill:#bea692;}.f{fill:#f8f8f8;}.g{fill:#231f20;}</style></defs><path class="g" d="M49.39,2.46H1.99c-1.1,0-1.99,.89-1.99,1.99V62.06c0,1.1,.89,1.99,1.99,1.99h2.23v5.95l2.99-1.78,3,1.78v-5.95H49.38c2.21,0,4-1.79,4-4V6.45c0-2.2-1.79-3.99-3.99-3.99Z"/><g><path class="c" d="M52.78,61.59H6.57V0H52.79c2.2,0,3.99,1.79,3.99,3.99V57.59c0,2.21-1.79,4-4,4Z"/><path class="f" d="M51.39,60.3H6.92V1.41H51.39c2.07,0,3.74,1.68,3.74,3.74V56.54c.01,2.08-1.67,3.75-3.74,3.75Z"/><path class="d" d="M49.62,61.59H5.4c-1.1,0-1.99-.89-1.99-1.99V1.99c0-1.1,.89-1.99,1.99-1.99H49.62c2.2,0,3.99,1.79,3.99,3.99V57.6c0,2.2-1.79,3.99-3.99,3.99Z"/><rect class="e" x="3.4" y="18.54" width="50.21" height="25.46"/><polygon class="b" points="7.63 61.59 7.63 67.54 10.61 65.75 13.61 67.54 13.61 61.59 7.63 61.59"/></g></svg>