<?xml version="1.0" encoding="UTF-8"?><svg id="a" xmlns="http://www.w3.org/2000/svg" viewBox="0 0 2661 1054"><defs><style>.b{fill:#ccc2ad;}.c{fill:#e8e5e2;}.d{fill:#74584b;}.e{fill:#8f6d5d;}.f{fill:#bea692;}.g{fill:#f8f8f8;}.h{fill:#231f20;}</style></defs><path class="b" d="M2503.61,1054H157.39C70.46,1054,0,983.54,0,896.61V157.39C0,70.46,70.46,0,157.39,0H2503.61c86.93,0,157.39,70.46,157.39,157.39V896.61c0,86.93-70.46,157.39-157.39,157.39Z"/><g><path class="h" d="M956.14,107.36H344.88c-14.21,0-25.72,11.52-25.72,25.72V875.97c0,14.21,11.52,25.72,25.72,25.72h28.75v76.71l38.51-23,38.66,23v-76.7h505.2c28.49,0,51.59-23.1,51.59-51.59V158.81c-.01-28.41-23.04-51.45-51.45-51.45Z"/><g><g><path class="d" d="M999.87,869.93H403.89V75.59H1000.02c28.41,0,51.44,23.03,51.44,51.44V818.33c0,28.5-23.1,51.6-51.59,51.6Z"/><path class="g" d="M982,853.28H408.43V93.75H982.01c26.66,0,48.27,21.61,48.27,48.27V804.86c.15,26.78-21.49,48.42-48.28,48.42Z"/><path class="e" d="M959.17,869.93H388.76c-14.21,0-25.72-11.52-25.72-25.72V101.31c0-14.21,11.52-25.72,25.72-25.72H959.17c28.41,0,51.44,23.03,51.44,51.44V818.48c0,28.41-23.03,51.45-51.44,51.45Z"/><rect class="f" x="363.04" y="314.65" width="647.57" height="328.32"/><polygon class="c" points="417.51 869.93 417.51 946.64 456.01 923.64 494.67 946.64 494.67 869.93 417.51 869.93"/></g><g><path d="M419.58,556.18c5.75,22.01,21.33,35.21,48.07,35.21,30.13,0,42.32-13.88,42.32-32.84s-8.12-28.78-46.04-37.92c-43.67-10.49-54.51-23.7-54.51-46.04s17.6-45.03,55.86-45.03,56.54,23.36,59.25,47.4h-16.93c-3.05-14.22-14.22-31.82-43-31.82s-37.92,14.56-37.92,28.1c0,15.57,8.12,23.36,41.64,31.48,47.73,11.51,59.58,27.08,59.58,52.47,0,30.81-25.05,49.77-60.6,49.77-38.59,0-60.26-20.31-65-50.78h17.28Z"/><path d="M543.49,433.63h31.48v-52.81h16.93v52.81h40.29v15.91h-40.29v110.03c0,18.96,4.06,29.79,20.31,29.79,5.08,0,12.19-.34,17.6-2.03v14.9c-5.75,2.37-13.88,3.05-20.99,3.05-21.67,0-33.86-10.83-33.86-37.92v-117.82h-31.48v-15.91h0Z"/><path d="M801.79,517.93c0,47.06-26.07,89.04-76.51,89.04-45.7,0-74.14-37.58-74.14-88.7,0-48.41,26.75-88.7,75.83-88.7,45.03,0,74.82,35.2,74.82,88.36Zm-132.71,.33c0,40.29,21.67,72.79,57.55,72.79s57.21-30.13,57.21-72.79c0-39.95-20.31-72.79-57.89-72.79-38.59,.01-56.87,32.17-56.87,72.79Zm19.3-132.37v-32.84h16.93v32.84h-16.93Zm58.57,0v-32.84h16.93v32.84h-16.93Z"/><path d="M843.77,476.28c0-14.9,0-29.11-.34-42.66h16.59c.68,5.42,1.02,27.42,.68,32.16,7.45-17.27,21.33-36.22,56.2-36.22,30.13,0,56.88,16.93,56.88,63.65v109.69h-16.93v-106.98c0-30.13-12.53-49.77-41.98-49.77-40.29,0-54.17,33.52-54.17,70.42v86.33h-16.93v-126.62h0Z"/></g></g></g><g><path d="M1248.45,433.55V182.91h107.31c11.06,0,21.18,2.3,30.36,6.89,9.18,4.59,17.17,10.71,24,18.35,6.82,7.65,12.12,16.24,15.88,25.77,3.76,9.53,5.65,19.24,5.65,29.12,0,11.53-2.18,22.48-6.53,32.83-4.36,10.36-10.47,19.18-18.35,26.48-7.89,7.3-17.12,12.36-27.71,15.18l60.72,96.02h-36.01l-57.19-90.02h-66.37v90.02h-31.77Zm31.77-118.26h75.9c8.7,0,16.29-2.41,22.77-7.24,6.47-4.82,11.53-11.24,15.18-19.24,3.65-8,5.47-16.59,5.47-25.77s-2.12-18.06-6.35-25.95c-4.24-7.88-9.77-14.18-16.59-18.89-6.83-4.7-14.36-7.06-22.59-7.06h-73.78v104.14Z"/><path d="M1550.98,437.08c-13.89,0-26.54-2.52-37.95-7.54-11.42-5.02-21.3-11.91-29.65-20.67-8.36-8.76-14.83-18.86-19.42-30.31-4.59-11.44-6.89-23.59-6.89-36.44,0-17.29,4-33.05,12-47.3,8-14.25,19.12-25.69,33.36-34.34,14.23-8.64,30.53-12.97,48.89-12.97s34.77,4.38,48.54,13.15c13.77,8.77,24.47,20.22,32.13,34.36,7.64,14.14,11.47,29.4,11.47,45.77,0,2.34-.06,4.62-.18,6.83-.12,2.22-.3,3.92-.53,5.09h-152.85c.94,11.87,4.29,22.39,10.06,31.58,5.76,9.19,13.24,16.4,22.42,21.64,9.18,5.23,19.06,7.85,29.65,7.85,11.3,0,21.94-2.82,31.95-8.47,10-5.65,16.88-13.06,20.65-22.24l26.83,7.41c-4.01,8.95-9.94,16.94-17.83,24-7.89,7.06-17.18,12.59-27.89,16.59-10.71,4-22.3,6-34.77,6Zm-62.13-105.9h125.67c-.94-11.86-4.36-22.33-10.24-31.4-5.89-9.07-13.42-16.17-22.59-21.29-9.18-5.12-19.3-7.68-30.36-7.68s-20.83,2.56-30.01,7.68c-9.18,5.12-16.65,12.21-22.42,21.29-5.77,9.07-9.12,19.54-10.06,31.4Z"/><path d="M1759.61,437.08c-13.89,0-26.54-2.52-37.95-7.54-11.42-5.02-21.3-11.97-29.65-20.85-8.36-8.87-14.83-19.03-19.42-30.48s-6.89-23.59-6.89-36.44c0-17.29,3.88-33.05,11.65-47.3,7.77-14.25,18.71-25.64,32.83-34.17,14.12-8.53,30.47-12.79,49.07-12.79s33.94,4.06,47.48,12.18c13.53,8.12,23.59,19.01,30.18,32.65l-30.36,9.53c-4.71-8.7-11.29-15.47-19.77-20.3-8.47-4.82-17.89-7.24-28.24-7.24-11.29,0-21.59,2.91-30.89,8.74-9.3,5.82-16.65,13.8-22.06,23.93-5.42,10.13-8.12,21.72-8.12,34.76s2.77,24.4,8.3,34.77c5.53,10.36,12.94,18.57,22.24,24.63,9.3,6.06,19.59,9.09,30.89,9.09,7.29,0,14.3-1.29,21-3.88,6.71-2.59,12.59-6.06,17.65-10.41,5.06-4.35,8.53-9.12,10.41-14.3l30.36,9.18c-3.77,8.95-9.48,16.89-17.12,23.83-7.65,6.95-16.71,12.42-27.18,16.42-10.48,4-21.95,6-34.42,6Z"/><path d="M1873.63,214.68v-38.83h31.07v38.83h-31.07Zm0,218.87V249.27h31.07v184.27h-31.07Z"/><path d="M2054.02,437.08c-15.07,0-28.48-3.73-40.24-11.21-11.77-7.47-21.06-16.94-27.89-28.39v111.26h-31.07V250.33h27.54v34.67c7.29-11.21,16.82-20.26,28.59-27.16,11.76-6.89,24.59-10.33,38.48-10.33,12.71,0,24.36,2.57,34.95,7.71,10.59,5.14,19.77,12.14,27.53,21.02,7.77,8.88,13.82,18.98,18.18,30.31,4.35,11.33,6.53,23.19,6.53,35.57,0,17.29-3.47,33.17-10.41,47.66-6.94,14.49-16.65,25.99-29.12,34.52-12.48,8.53-26.83,12.79-43.07,12.79Zm-9.53-26.83c9.18,0,17.47-1.92,24.89-5.76,7.41-3.84,13.77-8.96,19.06-15.37,5.3-6.4,9.36-13.68,12.18-21.84,2.82-8.15,4.24-16.54,4.24-25.16,0-9.08-1.59-17.7-4.76-25.85-3.18-8.15-7.65-15.37-13.42-21.66-5.77-6.29-12.48-11.24-20.12-14.85-7.65-3.61-15.95-5.42-24.89-5.42-5.65,0-11.47,1.05-17.48,3.14-6,2.1-11.71,5.06-17.12,8.89-5.42,3.84-10.01,8.2-13.77,13.08-3.77,4.89-6.24,10.12-7.41,15.69v52.21c3.53,7.91,8.23,15.12,14.12,21.63,5.88,6.51,12.71,11.68,20.47,15.52,7.77,3.84,15.76,5.75,24,5.75Z"/><path d="M2256.28,437.08c-13.89,0-26.54-2.52-37.95-7.54-11.42-5.02-21.3-11.91-29.65-20.67-8.36-8.76-14.83-18.86-19.42-30.31-4.59-11.44-6.89-23.59-6.89-36.44,0-17.29,4-33.05,12-47.3,8-14.25,19.12-25.69,33.36-34.34,14.23-8.64,30.53-12.97,48.89-12.97s34.77,4.38,48.54,13.15c13.77,8.77,24.47,20.22,32.13,34.36,7.64,14.14,11.47,29.4,11.47,45.77,0,2.34-.06,4.62-.18,6.83-.12,2.22-.3,3.92-.53,5.09h-152.85c.94,11.87,4.29,22.39,10.06,31.58,5.76,9.19,13.24,16.4,22.42,21.64,9.18,5.23,19.06,7.85,29.65,7.85,11.3,0,21.94-2.82,31.95-8.47,10-5.65,16.88-13.06,20.65-22.24l26.83,7.41c-4.01,8.95-9.94,16.94-17.83,24-7.89,7.06-17.18,12.59-27.89,16.59-10.71,4-22.3,6-34.77,6Zm-62.13-105.9h125.67c-.94-11.86-4.36-22.33-10.24-31.4-5.89-9.07-13.42-16.17-22.59-21.29-9.18-5.12-19.3-7.68-30.36-7.68s-20.83,2.56-30.01,7.68c-9.18,5.12-16.65,12.21-22.42,21.29-5.77,9.07-9.12,19.54-10.06,31.4Z"/><path d="M1360.17,665.12v192.04h-31.77v-250.64h26.83l153.21,195.92v-195.57h31.77v250.28h-28.95l-151.09-192.04Z"/><path d="M1672.58,860.69c-13.89,0-26.48-2.52-37.77-7.54-11.3-5.02-21.06-11.91-29.3-20.67-8.24-8.76-14.6-18.86-19.06-30.31-4.47-11.44-6.71-23.47-6.71-36.09s2.24-24.99,6.71-36.44c4.47-11.45,10.82-21.55,19.06-30.31,8.24-8.76,18.06-15.65,29.48-20.67,11.41-5.02,23.94-7.53,37.6-7.53s26.48,2.51,37.77,7.53c11.3,5.03,21.12,11.92,29.48,20.67,8.35,8.76,14.77,18.86,19.24,30.31,4.47,11.45,6.71,23.6,6.71,36.44s-2.24,24.65-6.71,36.09c-4.47,11.45-10.83,21.55-19.06,30.31-8.24,8.76-18.06,15.65-29.48,20.67-11.42,5.02-24.06,7.54-37.95,7.54Zm-61.07-94.26c0,12.58,2.77,23.99,8.3,34.24,5.53,10.25,12.88,18.35,22.06,24.28,9.18,5.94,19.42,8.91,30.71,8.91s21.59-3.03,30.89-9.09c9.29-6.06,16.71-14.26,22.24-24.63,5.53-10.36,8.3-21.84,8.3-34.42s-2.77-23.99-8.3-34.24c-5.53-10.25-12.94-18.4-22.24-24.46-9.3-6.06-19.59-9.09-30.89-9.09s-21.53,3.09-30.71,9.26c-9.18,6.17-16.54,14.38-22.06,24.63-5.53,10.25-8.3,21.78-8.3,34.59Z"/><path d="M1896.04,849.04c-2.59,1.18-6.12,2.71-10.59,4.59-4.47,1.89-9.65,3.53-15.53,4.94-5.89,1.41-12.12,2.12-18.71,2.12-7.54,0-14.47-1.36-20.83-4.06-6.36-2.7-11.42-6.94-15.18-12.71-3.77-5.76-5.65-13-5.65-21.71v-123.91h-25.07v-24.36h25.07v-61.42h31.06v61.42h41.3v24.36h-41.3v114.38c.47,6.59,2.7,11.47,6.71,14.65,4,3.18,8.7,4.77,14.12,4.77,6.12,0,11.76-1.06,16.94-3.18,5.17-2.12,8.59-3.65,10.24-4.59l7.41,24.71Z"/><path d="M2004.07,860.69c-13.89,0-26.54-2.52-37.95-7.54-11.42-5.02-21.3-11.91-29.65-20.67-8.36-8.76-14.83-18.86-19.42-30.31-4.59-11.44-6.89-23.59-6.89-36.44,0-17.29,4-33.05,12-47.3,8-14.25,19.12-25.69,33.36-34.34,14.23-8.64,30.53-12.97,48.89-12.97s34.77,4.38,48.54,13.15c13.77,8.77,24.47,20.22,32.13,34.36,7.64,14.14,11.47,29.4,11.47,45.77,0,2.34-.06,4.62-.18,6.83-.12,2.22-.3,3.92-.53,5.09h-152.85c.94,11.87,4.29,22.39,10.06,31.58,5.76,9.19,13.24,16.4,22.42,21.64,9.18,5.23,19.06,7.85,29.65,7.85,11.3,0,21.94-2.82,31.95-8.47,10-5.65,16.88-13.06,20.65-22.24l26.83,7.41c-4.01,8.95-9.94,16.94-17.83,24-7.89,7.06-17.18,12.59-27.89,16.59-10.71,4-22.3,6-34.77,6Zm-62.13-105.9h125.67c-.94-11.86-4.36-22.33-10.24-31.4-5.89-9.07-13.42-16.17-22.59-21.29-9.18-5.12-19.3-7.68-30.36-7.68s-20.83,2.56-30.01,7.68c-9.18,5.12-16.65,12.21-22.42,21.29-5.77,9.07-9.12,19.54-10.06,31.4Z"/><path d="M2194.33,860.69c-15.3,0-29.65-2.53-43.07-7.59-13.41-5.06-24.95-12.65-34.59-22.77l12-21.89c10.59,9.88,21.18,16.94,31.77,21.18,10.59,4.24,21.41,6.36,32.48,6.36,12.71,0,23.06-2.38,31.06-7.14,8-4.75,12-11.78,12-21.06,0-6.77-2.06-11.79-6.18-15.06-4.12-3.27-9.94-6.02-17.47-8.24-7.53-2.22-16.48-4.73-26.83-7.53-12.71-3.73-23.42-7.71-32.13-11.91-8.71-4.2-15.3-9.46-19.77-15.77-4.47-6.31-6.71-14.25-6.71-23.83,0-11.68,3.05-21.54,9.18-29.61,6.12-8.06,14.53-14.19,25.24-18.4,10.71-4.2,22.88-6.31,36.54-6.31s26,2.12,37.06,6.35c11.06,4.24,20.59,10.47,28.59,18.71l-14.12,21.53c-7.3-7.53-15.3-13.12-24-16.77-8.71-3.65-18.48-5.47-29.3-5.47-6.35,0-12.59,.76-18.71,2.28-6.12,1.52-11.18,4.2-15.18,8.05-4.01,3.85-6,9.28-6,16.28,0,5.84,1.59,10.44,4.76,13.82,3.18,3.39,7.88,6.24,14.12,8.58,6.23,2.34,13.82,4.9,22.77,7.7,13.88,3.97,25.95,7.94,36.18,11.9,10.24,3.97,18.18,9.1,23.83,15.4,5.65,6.3,8.47,15.05,8.47,26.25,0,17.27-6.59,30.74-19.77,40.43-13.18,9.69-30.6,14.52-52.24,14.52Z"/></g></svg>