<?xml version="1.0" encoding="UTF-8"?><svg id="a" xmlns="http://www.w3.org/2000/svg" viewBox="0 0 2661 1054"><defs><style>.b{fill:#ccc2ad;}.c{fill:#e8e5e2;}.d{fill:#74584b;}.e{fill:#8f6d5d;}.f{fill:#bea692;}.g{fill:#f8f8f8;}.h{fill:#231f20;}</style></defs><path class="b" d="M2503.61,1054H157.39C70.46,1054,0,983.54,0,896.61V157.39C0,70.46,70.46,0,157.39,0H2503.61c86.93,0,157.39,70.46,157.39,157.39V896.61c0,86.93-70.46,157.39-157.39,157.39Z"/><path class="h" d="M956.14,107.36H344.88c-14.21,0-25.72,11.52-25.72,25.72V875.97c0,14.21,11.52,25.72,25.72,25.72h28.75v76.71l38.51-23,38.66,23v-76.7h505.2c28.49,0,51.59-23.1,51.59-51.59V158.81c-.01-28.41-23.04-51.45-51.45-51.45Z"/><g><path class="d" d="M999.87,869.93H403.89V75.59H1000.02c28.41,0,51.44,23.03,51.44,51.44V818.33c0,28.5-23.1,51.6-51.59,51.6Z"/><path class="g" d="M982,853.28H408.43V93.75H982.01c26.66,0,48.27,21.61,48.27,48.27V804.86c.15,26.78-21.49,48.42-48.28,48.42Z"/><path class="e" d="M959.17,869.93H388.76c-14.21,0-25.72-11.52-25.72-25.72V101.31c0-14.21,11.52-25.72,25.72-25.72H959.17c28.41,0,51.44,23.03,51.44,51.44V818.48c0,28.41-23.03,51.45-51.44,51.45Z"/><rect class="f" x="363.04" y="314.65" width="647.57" height="328.32"/><polygon class="c" points="417.51 869.93 417.51 946.64 456.01 923.64 494.67 946.64 494.67 869.93 417.51 869.93"/></g><g><path d="M506.56,522.53c0-8.32-2.94-14.7-8.81-19.16-5.87-4.45-16.44-9.15-31.71-14.09-15.27-4.94-27.35-9.81-36.26-14.61-24.27-13.11-36.41-30.78-36.41-52.99,0-11.55,3.25-21.85,9.76-30.9,6.51-9.05,15.85-16.12,28.04-21.21,12.18-5.09,25.86-7.63,41.03-7.63s28.87,2.77,40.81,8.29c11.94,5.53,21.21,13.34,27.82,23.41,6.61,10.08,9.91,21.53,9.91,34.35h-44.04c0-9.78-3.08-17.4-9.25-22.83-6.17-5.43-14.83-8.15-25.98-8.15s-19.13,2.28-25.1,6.83c-5.97,4.55-8.96,10.55-8.96,17.98,0,6.95,3.5,12.77,10.5,17.47,7,4.7,17.3,9.1,30.9,13.21,25.05,7.54,43.31,16.88,54.76,28.04,11.45,11.16,17.18,25.05,17.18,41.69,0,18.5-7,33.01-20.99,43.53-14,10.52-32.83,15.78-56.52,15.78-16.44,0-31.41-3.01-44.92-9.03s-23.81-14.26-30.9-24.74c-7.1-10.47-10.64-22.61-10.64-36.41h44.19c0,23.59,14.09,35.38,42.28,35.38,10.47,0,18.64-2.13,24.52-6.39,5.87-4.26,8.81-10.2,8.81-17.84Z"/><path d="M628.55,380.73v39.05h27.16v31.12h-27.16v79.27c0,5.87,1.12,10.08,3.38,12.62,2.25,2.55,6.56,3.82,12.92,3.82,4.7,0,8.86-.34,12.48-1.03v32.15c-8.32,2.54-16.88,3.82-25.69,3.82-29.75,0-44.92-15.02-45.51-45.07v-85.58h-23.19v-31.12h23.19v-39.05h42.42Z"/><path d="M668.33,497.73c0-15.76,3.03-29.8,9.1-42.13,6.07-12.33,14.8-21.87,26.2-28.63,11.4-6.75,24.64-10.13,39.71-10.13,21.43,0,38.92,6.56,52.48,19.67,13.55,13.12,21.11,30.93,22.68,53.43l.29,10.86c0,24.37-6.8,43.92-20.41,58.65-13.6,14.73-31.85,22.09-54.76,22.09s-41.18-7.34-54.83-22.02c-13.65-14.68-20.48-34.64-20.48-59.89v-1.91Zm59.45-119.57c0,5.21-1.91,9.61-5.73,13.19-3.82,3.59-8.71,5.38-14.68,5.38s-10.96-1.82-14.68-5.45c-3.72-3.64-5.58-8.01-5.58-13.12s1.86-9.5,5.58-13.19c3.72-3.68,8.61-5.53,14.68-5.53s10.98,1.84,14.75,5.53c3.77,3.68,5.65,8.08,5.65,13.19Zm-17.03,122.58c0,15.09,2.84,26.64,8.51,34.62,5.67,7.99,13.8,11.98,24.37,11.98s18.3-3.95,24.07-11.84c5.77-7.89,8.66-20.51,8.66-37.86,0-14.8-2.89-26.27-8.66-34.4-5.78-8.13-13.9-12.2-24.37-12.2s-18.4,4.04-24.07,12.13c-5.68,8.09-8.51,20.61-8.51,37.56Zm47.86-122.58c0-5.31,1.98-9.75,5.95-13.34,3.96-3.58,8.78-5.38,14.46-5.38s10.59,1.82,14.46,5.45c3.86,3.64,5.8,8.06,5.8,13.26s-1.86,9.51-5.58,13.19c-3.72,3.68-8.61,5.53-14.68,5.53s-10.99-1.84-14.75-5.53c-3.77-3.68-5.65-8.08-5.65-13.19Z"/><path d="M883.97,419.78l1.32,18.35c11.35-14.19,26.57-21.29,45.65-21.29,16.83,0,29.36,4.94,37.58,14.83,8.22,9.89,12.43,24.66,12.62,44.33v102.61h-42.42v-101.58c0-9-1.96-15.54-5.87-19.6-3.92-4.06-10.42-6.09-19.52-6.09-11.94,0-20.9,5.09-26.86,15.27v112.01h-42.42v-158.83h39.93Z"/></g><g><path d="M1371.15,355.53h-36.97v82.45h-46.41V212.75h83.69c26.61,0,47.13,5.93,61.57,17.79,14.44,11.86,21.66,28.62,21.66,50.27,0,15.37-3.33,28.18-9.98,38.44-6.65,10.26-16.73,18.43-30.24,24.52l48.73,92.04v2.17h-49.81l-42.23-82.45Zm-36.97-37.59h37.44c11.65,0,20.68-2.96,27.07-8.89,6.39-5.93,9.59-14.1,9.59-24.52s-3.02-18.97-9.05-25.06c-6.03-6.08-15.29-9.13-27.77-9.13h-37.28v67.6Z"/><path d="M1564.05,441.08c-24.54,0-44.53-7.53-59.94-22.59-15.42-15.06-23.13-35.12-23.13-60.18v-4.33c0-16.81,3.25-31.84,9.75-45.09,6.5-13.25,15.7-23.46,27.61-30.63,11.91-7.17,25.5-10.75,40.76-10.75,22.89,0,40.92,7.22,54.06,21.66,13.15,14.44,19.72,34.91,19.72,61.41v18.25h-106.58c1.44,10.93,5.8,19.7,13.07,26.3,7.27,6.6,16.47,9.9,27.61,9.9,17.22,0,30.68-6.24,40.37-18.72l21.97,24.6c-6.71,9.49-15.78,16.89-27.23,22.2-11.45,5.31-24.13,7.97-38.05,7.97Zm-5.1-137.52c-8.87,0-16.06,3-21.58,9.01-5.52,6.01-9.05,14.61-10.6,25.79h62.19v-3.58c-.21-9.94-2.89-17.63-8.04-23.07-5.16-5.44-12.48-8.16-21.97-8.16Z"/><path d="M1727.87,405.03c8.25,0,14.95-2.27,20.11-6.81,5.16-4.54,7.84-10.57,8.04-18.1h41.92c-.1,11.35-3.2,21.73-9.28,31.17-6.09,9.44-14.41,16.76-24.98,21.97-10.57,5.21-22.25,7.81-35.04,7.81-23.93,0-42.8-7.6-56.62-22.82-13.82-15.21-20.73-36.22-20.73-63.04v-2.94c0-25.78,6.86-46.35,20.57-61.72,13.71-15.37,32.54-23.05,56.46-23.05,20.93,0,37.72,5.96,50.35,17.87,12.63,11.91,19.05,27.77,19.26,47.57h-41.92c-.21-8.71-2.89-15.78-8.04-21.23-5.16-5.44-11.96-8.16-20.42-8.16-10.42,0-18.28,3.8-23.59,11.39-5.31,7.59-7.97,19.91-7.97,36.95v4.65c0,17.25,2.63,29.64,7.89,37.18,5.26,7.54,13.25,11.31,23.98,11.31Z"/><path d="M1823.16,227.29c0-6.7,2.24-12.22,6.73-16.55,4.49-4.33,10.6-6.5,18.33-6.5s13.71,2.17,18.25,6.5c4.54,4.33,6.81,9.85,6.81,16.55s-2.3,12.38-6.88,16.71c-4.59,4.33-10.65,6.5-18.18,6.5s-13.59-2.17-18.18-6.5c-4.59-4.33-6.88-9.9-6.88-16.71Zm47.49,210.69h-44.86v-167.38h44.86v167.38Z"/><path d="M2058.13,355.84c0,25.78-5.85,46.43-17.56,61.95-11.71,15.52-27.51,23.28-47.41,23.28-16.92,0-30.58-5.88-40.99-17.63v78.89h-44.71v-231.73h41.46l1.55,16.4c10.83-12.99,24.96-19.49,42.39-19.49,20.63,0,36.66,7.63,48.11,22.89,11.45,15.26,17.17,36.3,17.17,63.11v2.32Zm-44.71-3.25c0-15.57-2.76-27.59-8.28-36.04-5.52-8.45-13.54-12.68-24.05-12.68-14.03,0-23.67,5.36-28.93,16.09v68.53c5.47,11.04,15.21,16.55,29.24,16.55,21.35,0,32.02-17.48,32.02-52.44Z"/><path d="M2162.86,441.08c-24.54,0-44.53-7.53-59.94-22.59-15.42-15.06-23.13-35.12-23.13-60.18v-4.33c0-16.81,3.25-31.84,9.75-45.09,6.5-13.25,15.7-23.46,27.61-30.63,11.91-7.17,25.5-10.75,40.76-10.75,22.89,0,40.92,7.22,54.06,21.66,13.15,14.44,19.72,34.91,19.72,61.41v18.25h-106.58c1.44,10.93,5.8,19.7,13.07,26.3,7.27,6.6,16.47,9.9,27.61,9.9,17.22,0,30.68-6.24,40.37-18.72l21.97,24.6c-6.71,9.49-15.78,16.89-27.23,22.2-11.45,5.31-24.13,7.97-38.05,7.97Zm-5.1-137.52c-8.87,0-16.06,3-21.58,9.01-5.52,6.01-9.05,14.61-10.6,25.79h62.19v-3.58c-.21-9.94-2.89-17.63-8.04-23.07-5.16-5.44-12.48-8.16-21.97-8.16Z"/><path d="M1535.04,818.15h-46.41l-90.34-148.19v148.19h-46.41v-225.23h46.41l90.49,148.5v-148.5h46.25v225.23Z"/><path d="M1565.67,732.92c0-16.6,3.19-31.4,9.59-44.4,6.39-12.99,15.6-23.05,27.61-30.16,12.01-7.12,25.96-10.67,41.84-10.67,22.59,0,41.02,6.91,55.3,20.73,14.28,13.82,22.25,32.59,23.9,56.31l.31,11.45c0,25.68-7.17,46.28-21.5,61.8-14.33,15.52-33.57,23.28-57.7,23.28s-43.39-7.73-57.78-23.2c-14.39-15.47-21.58-36.51-21.58-63.11v-2.01Zm44.71,3.17c0,15.91,2.99,28.07,8.97,36.49,5.98,8.42,14.54,12.63,25.68,12.63s19.28-4.16,25.37-12.47c6.08-8.31,9.13-21.61,9.13-39.89,0-15.6-3.04-27.68-9.13-36.25-6.09-8.57-14.64-12.86-25.68-12.86s-19.39,4.26-25.37,12.78c-5.98,8.52-8.97,21.72-8.97,39.58Z"/><path d="M1805.29,609.63v41.15h28.62v32.79h-28.62v83.53c0,6.19,1.18,10.62,3.56,13.3,2.37,2.68,6.91,4.02,13.61,4.02,4.95,0,9.33-.36,13.15-1.08v33.88c-8.77,2.68-17.79,4.02-27.07,4.02-31.35,0-47.34-15.83-47.95-47.49v-90.19h-24.44v-32.79h24.44v-41.15h44.71Z"/><path d="M1935.85,821.25c-24.54,0-44.53-7.53-59.94-22.59-15.42-15.06-23.13-35.12-23.13-60.18v-4.33c0-16.81,3.25-31.84,9.75-45.09,6.5-13.25,15.7-23.46,27.61-30.63,11.91-7.17,25.5-10.75,40.76-10.75,22.89,0,40.92,7.22,54.06,21.66,13.15,14.44,19.72,34.91,19.72,61.41v18.25h-106.58c1.44,10.93,5.8,19.7,13.07,26.3,7.27,6.6,16.47,9.9,27.61,9.9,17.22,0,30.68-6.24,40.37-18.72l21.97,24.6c-6.71,9.49-15.78,16.89-27.23,22.2s-24.13,7.97-38.05,7.97Zm-5.1-137.52c-8.87,0-16.06,3-21.58,9.01-5.52,6.01-9.05,14.61-10.6,25.79h62.19v-3.58c-.21-9.94-2.89-17.63-8.04-23.07-5.16-5.44-12.48-8.16-21.97-8.16Z"/><path d="M2120.71,771.9c0-5.47-2.71-9.77-8.12-12.92-5.41-3.15-14.1-5.96-26.07-8.43-39.81-8.35-59.71-25.27-59.71-50.74,0-14.85,6.16-27.25,18.49-37.2,12.32-9.95,28.44-14.93,48.34-14.93,21.24,0,38.23,5,50.97,15.01,12.74,10,19.1,23,19.1,38.98h-44.71c0-6.39-2.06-11.68-6.19-15.86-4.13-4.18-10.57-6.27-19.34-6.27-7.53,0-13.36,1.7-17.48,5.1-4.13,3.4-6.19,7.73-6.19,12.99,0,4.95,2.34,8.95,7.04,11.99,4.69,3.04,12.61,5.67,23.75,7.89,11.14,2.22,20.52,4.72,28.15,7.5,23.61,8.66,35.42,23.67,35.42,45.02,0,15.26-6.55,27.61-19.65,37.05-13.1,9.44-30.01,14.15-50.74,14.15-14.03,0-26.48-2.5-37.36-7.5-10.88-5-19.41-11.86-25.6-20.57-6.19-8.71-9.28-18.12-9.28-28.23h42.39c.41,7.94,3.35,14.03,8.82,18.25,5.47,4.23,12.79,6.34,21.97,6.34,8.56,0,15.03-1.62,19.41-4.87,4.38-3.25,6.57-7.5,6.57-12.76Z"/></g></svg>